<?xml version="1.0" encoding="utf-8"?>
<!-- Generator: Adobe Illustrator 16.0.0, SVG Export Plug-In . SVG Version: 6.00 Build 0)  -->
<!DOCTYPE svg PUBLIC "-//W3C//DTD SVG 1.1//EN" "http://www.w3.org/Graphics/SVG/1.1/DTD/svg11.dtd">
<svg version="1.1" id="katman_1" xmlns="http://www.w3.org/2000/svg" xmlns:xlink="http://www.w3.org/1999/xlink" x="0px" y="0px"
	 width="96px" height="154px" viewBox="0 0 96 154" enable-background="new 0 0 96 154" xml:space="preserve">
<g>
	<path d="M16.903,120.635l18.36,16.758h28.008l17.133-15.838l0.24-42.658L62.732,62.649l-21.44,0.027l-0.127-22.652l14.808,0.009
		L55.96,55.737l24.356-0.005V36.181v-0.325l-18.58-16.953H34.293l-17.39,15.434v35.529L34.35,85.6l21.55-0.022l0.006,4.522
		l0.027,25.381l-14.558,0.023l0.017-9.742L27.297,92.986l-10.394-0.09V120.635L16.903,120.635z M92.548,90.336v31.623
		c0,3.525-1.364,6.563-4.002,8.902l-17.392,15.434c-2.266,2.012-4.87,3-7.899,3H35.812c-3.087,0-5.743-1.029-8.023-3.109
		l-18.58-16.953c-2.563-2.338-3.88-5.321-3.88-8.793V90.318c0.006-3.955,6.934-7.59,7.164-12.016
		c0.28-5.395-7.549-6.317-7.492-13.473L5.24,34.673c0.02-3.419,1.313-6.354,3.824-8.675l17.134-15.836
		C28.484,8.049,31.163,7,34.276,7h28.008c3.088,0,5.743,1.03,8.024,3.111L88.67,26.87c2.561,2.338,3.878,5.323,3.878,8.792v29.54
		c0,3.296-2.223,5.19-3.883,6.649C77.857,81.352,92.548,82.43,92.548,90.336L92.548,90.336z"/>
</g>
</svg>
