<?xml version="1.0" encoding="utf-8"?>
<!-- Generator: Adobe Illustrator 16.0.0, SVG Export Plug-In . SVG Version: 6.00 Build 0)  -->
<!DOCTYPE svg PUBLIC "-//W3C//DTD SVG 1.1//EN" "http://www.w3.org/Graphics/SVG/1.1/DTD/svg11.dtd">
<svg version="1.1" id="katman_1" xmlns="http://www.w3.org/2000/svg" xmlns:xlink="http://www.w3.org/1999/xlink" x="0px" y="0px"
	 width="294.832px" height="132.013px" viewBox="0 0 294.832 132.013" enable-background="new 0 0 294.832 132.013"
	 xml:space="preserve">
<path fill="#00534D" d="M273.739,99.357l1.952-3.798h2.264l-1.274,3.798H273.739z M104.741,94.878V77.56h4.104l2.405,11.819
	l2.376-11.819h4.103v17.318h-2.518V81.244l-2.661,13.634h-2.63l-2.631-13.634l-0.029,13.634H104.741z M132.61,94.878h-2.942
	l-1.16-3.939h-5.405l-1.131,3.939h-2.887l5.234-17.318h2.887L132.61,94.878z M127.631,88.019l-1.867-6.435l-1.839,6.435H127.631z
	 M134.11,94.878V77.56h2.717v7.652l5.517-7.652h3.65l-5.093,6.745l5.347,10.573h-3.509l-3.706-8.135l-2.206,2.891v5.244H134.11z
	 M147.577,77.56h2.718v17.319h-2.718V77.56z M147.691,72.825h2.547v3.146h-2.547V72.825z M152.896,94.878V77.56h2.632l5.545,11.593
	V77.56h2.547v17.318h-2.744l-5.461-11.395v11.395H152.896z M178.645,94.878h-2.942l-1.161-3.939h-5.403l-1.132,3.939h-2.886
	l5.234-17.318h2.886L178.645,94.878z M173.636,88.019l-1.867-6.435l-1.811,6.435H173.636z M196.554,92.781l-1.585,2.551
	c-0.763-0.481-1.499-1.134-2.206-1.984c-0.537,0.623-1.132,1.105-1.726,1.39c-0.622,0.311-1.358,0.453-2.18,0.453
	c-1.697,0-2.941-0.596-3.791-1.814c-0.65-0.936-0.99-2.013-0.99-3.231c0-1.134,0.255-2.126,0.765-3.005
	c0.537-0.907,1.301-1.673,2.319-2.324c-0.452-0.708-0.792-1.36-1.047-2.013c-0.227-0.624-0.339-1.219-0.339-1.813
	c0-1.049,0.312-1.928,0.99-2.665c0.65-0.737,1.556-1.077,2.772-1.077c1.16,0,2.065,0.368,2.716,1.134
	c0.679,0.766,0.99,1.701,0.99,2.807c0,0.709-0.141,1.36-0.48,1.983c-0.311,0.652-0.962,1.361-1.953,2.155l1.869,3.203
	c0.197-0.511,0.395-1.162,0.564-1.956l2.321,0.651c-0.228,1.077-0.426,1.871-0.596,2.354c-0.168,0.482-0.367,0.907-0.564,1.247
	c0.312,0.34,0.679,0.709,1.131,1.134C195.988,92.384,196.328,92.64,196.554,92.781z M189.509,83.341l0.707-0.68
	c0.511-0.538,0.765-1.021,0.765-1.531c0-0.425-0.142-0.794-0.368-1.104c-0.255-0.284-0.594-0.454-1.019-0.454
	c-0.396,0-0.707,0.142-0.962,0.396c-0.227,0.284-0.339,0.597-0.339,0.936c0,0.396,0.197,0.908,0.594,1.475L189.509,83.341z
	 M188.49,86.941c-0.594,0.396-1.019,0.879-1.33,1.418c-0.282,0.539-0.425,1.104-0.425,1.672c0,0.709,0.171,1.304,0.538,1.758
	c0.368,0.453,0.85,0.68,1.472,0.68c0.396,0,0.792-0.112,1.159-0.312c0.368-0.198,0.765-0.538,1.217-1.021L188.49,86.941z
	 M206.91,94.878l-4.84-17.318h2.972l3.424,12.812l3.282-12.812h2.886l-4.781,17.318H206.91z M215.906,77.56h2.745v17.319h-2.745
	V77.56z M216.02,72.825h2.546v3.146h-2.546V72.825z M221.254,94.878V77.56h2.632l5.545,11.593V77.56h2.519v17.318h-2.717
	l-5.46-11.395v11.395H221.254z M243.465,88.501l2.632,1.021c-0.396,1.927-1.076,3.345-2.01,4.252
	c-0.934,0.936-2.149,1.389-3.593,1.389c-1.783,0-3.254-0.765-4.414-2.354c-1.16-1.559-1.726-3.713-1.726-6.463
	c0-2.862,0.565-5.131,1.726-6.718s2.688-2.381,4.583-2.381c1.642,0,3,0.624,4.018,1.871c0.623,0.737,1.075,1.813,1.387,3.203
	l-2.688,0.822c-0.17-0.907-0.509-1.616-1.019-2.126c-0.509-0.511-1.104-0.794-1.84-0.794c-0.99,0-1.811,0.481-2.432,1.389
	c-0.623,0.936-0.935,2.41-0.935,4.479c0,2.184,0.312,3.742,0.935,4.677c0.594,0.937,1.414,1.39,2.376,1.39
	c0.735,0,1.357-0.283,1.867-0.879C242.871,90.683,243.237,89.748,243.465,88.501z M265.109,94.878h-2.943l-1.159-3.939h-5.404
	l-1.132,3.939h-2.886l5.234-17.318h2.886L265.109,94.878z M260.13,88.019l-1.867-6.435l-1.84,6.435H260.13z M266.523,91.563h2.575
	v3.315h-2.575V91.563z M271.078,89.266l2.661-0.34c0.169,1.135,0.48,1.984,0.962,2.522c0.48,0.539,1.159,0.794,1.979,0.794
	c0.878,0,1.528-0.228,1.98-0.708c0.425-0.482,0.651-1.049,0.651-1.673c0-0.426-0.085-0.766-0.282-1.049
	c-0.17-0.283-0.51-0.538-0.963-0.737c-0.312-0.17-1.047-0.397-2.179-0.765c-1.443-0.482-2.462-1.05-3.056-1.729
	c-0.82-0.964-1.244-2.126-1.244-3.487c0-0.906,0.197-1.729,0.594-2.494c0.396-0.765,0.934-1.36,1.669-1.758
	c0.736-0.396,1.612-0.595,2.66-0.595c1.669,0,2.942,0.453,3.791,1.417c0.85,0.992,1.302,2.268,1.358,3.884l-2.745,0.113
	c-0.113-0.907-0.367-1.531-0.735-1.928c-0.396-0.397-0.962-0.596-1.726-0.596s-1.387,0.198-1.839,0.624
	c-0.283,0.283-0.424,0.623-0.424,1.077c0,0.425,0.141,0.767,0.396,1.077c0.339,0.369,1.188,0.737,2.518,1.162
	c1.302,0.396,2.292,0.822,2.914,1.248c0.622,0.425,1.133,0.992,1.499,1.757c0.34,0.737,0.538,1.672,0.538,2.75
	c0,0.992-0.226,1.927-0.65,2.807c-0.424,0.85-1.047,1.501-1.811,1.927c-0.793,0.426-1.782,0.624-2.942,0.624
	c-1.698,0-3.027-0.511-3.934-1.503C271.814,92.668,271.277,91.193,271.078,89.266z M284.32,91.563h2.576v3.315h-2.576V91.563z
	 M237.409,99.357l1.925-3.798h2.263l-1.272,3.798H237.409z"/>
<path fill-rule="evenodd" clip-rule="evenodd" fill="#777677" d="M104.687,112.049V99.132h2.975l1.763,8.811l1.738-8.811h2.989
	v12.917h-1.839l-0.007-10.165l-1.938,10.165h-1.909l-1.93-10.165l-0.007,10.165H104.687z M124.985,112.049h-2.144l-0.846-2.94
	h-3.937l-0.814,2.94h-2.105l3.815-12.917h2.098L124.985,112.049z M121.349,106.925l-1.36-4.779l-1.325,4.779H121.349z
	 M132.328,107.285l1.917,0.777c-0.293,1.425-0.783,2.477-1.472,3.168c-0.686,0.689-1.549,1.036-2.609,1.036
	c-1.3,0-2.374-0.586-3.216-1.755c-0.839-1.172-1.259-2.777-1.259-4.815c0-2.148,0.422-3.817,1.266-5.01
	c0.843-1.194,1.951-1.787,3.333-1.787c1.202,0,2.174,0.471,2.926,1.404c0.448,0.555,0.784,1.349,1.007,2.384l-1.965,0.614
	c-0.116-0.67-0.356-1.201-0.727-1.583c-0.366-0.39-0.817-0.583-1.343-0.583c-0.726,0-1.318,0.34-1.772,1.035
	c-0.455,0.681-0.679,1.794-0.679,3.335c0,1.629,0.225,2.791,0.668,3.485c0.449,0.688,1.028,1.035,1.747,1.035
	c0.523,0,0.978-0.217,1.359-0.659C131.888,108.922,132.161,108.233,132.328,107.285z M135.947,112.049V99.132h1.986v5.094h3.871
	v-5.094h1.99v12.917h-1.99v-5.645h-3.871v5.645H135.947z M145.784,99.132h1.989v12.917h-1.989V99.132z M149.665,112.049V99.132
	h1.927l4.039,8.659v-8.659h1.836v12.917h-1.987l-3.978-8.491v8.491H149.665z M159.572,112.049V99.132h7.266v2.184h-5.28v2.866h4.91
	v2.185h-4.91v3.503h5.475v2.18H159.572z M181.21,110.484l-1.14,1.909c-0.558-0.358-1.096-0.853-1.609-1.481
	c-0.399,0.471-0.819,0.815-1.266,1.038c-0.444,0.218-0.973,0.331-1.592,0.331c-1.224,0-2.14-0.45-2.759-1.355
	c-0.476-0.702-0.713-1.506-0.713-2.418c0-0.824,0.185-1.569,0.563-2.236c0.373-0.66,0.937-1.232,1.685-1.72
	c-0.337-0.523-0.594-1.025-0.755-1.5c-0.175-0.469-0.264-0.922-0.264-1.345c0-0.781,0.243-1.445,0.714-1.989
	c0.477-0.544,1.158-0.818,2.032-0.818c0.846,0,1.511,0.287,1.985,0.853c0.482,0.569,0.718,1.264,0.718,2.089
	c0,0.523-0.115,1.022-0.354,1.488c-0.234,0.468-0.71,1.002-1.42,1.598l1.351,2.384c0.16-0.369,0.297-0.86,0.412-1.463l1.707,0.5
	c-0.172,0.802-0.318,1.385-0.444,1.75c-0.123,0.367-0.259,0.673-0.403,0.923c0.211,0.26,0.486,0.541,0.818,0.849
	C180.807,110.179,181.055,110.381,181.21,110.484z M176.086,103.449l0.508-0.517c0.371-0.379,0.556-0.758,0.556-1.138
	c0-0.319-0.087-0.586-0.27-0.809c-0.182-0.23-0.419-0.336-0.727-0.336c-0.297,0-0.532,0.096-0.697,0.296
	c-0.171,0.196-0.252,0.425-0.252,0.681c0,0.311,0.142,0.678,0.428,1.116L176.086,103.449z M175.353,106.138
	c-0.431,0.291-0.752,0.639-0.97,1.047c-0.209,0.403-0.318,0.82-0.318,1.242c0,0.537,0.137,0.976,0.399,1.309
	c0.262,0.34,0.619,0.51,1.061,0.51c0.293,0,0.579-0.074,0.849-0.228c0.269-0.151,0.563-0.405,0.889-0.763L175.353,106.138z
	 M192.524,107.285l1.919,0.777c-0.293,1.425-0.786,2.477-1.468,3.168c-0.689,0.689-1.56,1.036-2.608,1.036
	c-1.308,0-2.379-0.586-3.22-1.755c-0.84-1.172-1.26-2.777-1.26-4.815c0-2.148,0.42-3.817,1.266-5.01
	c0.843-1.194,1.955-1.787,3.329-1.787c1.206,0,2.179,0.471,2.931,1.404c0.446,0.555,0.779,1.349,1.003,2.384l-1.962,0.614
	c-0.115-0.67-0.353-1.201-0.728-1.583c-0.365-0.39-0.814-0.583-1.342-0.583c-0.728,0-1.318,0.34-1.773,1.035
	c-0.451,0.681-0.682,1.794-0.682,3.335c0,1.629,0.225,2.791,0.671,3.485c0.448,0.688,1.029,1.035,1.745,1.035
	c0.528,0,0.979-0.217,1.356-0.659C192.088,108.922,192.36,108.233,192.524,107.285z M196.15,112.049V99.132h4.173
	c1.051,0,1.813,0.119,2.293,0.351c0.476,0.23,0.856,0.646,1.141,1.235c0.285,0.594,0.433,1.271,0.433,2.039
	c0,0.971-0.221,1.767-0.653,2.398c-0.428,0.631-1.073,1.027-1.932,1.192c0.428,0.331,0.777,0.688,1.053,1.083
	c0.28,0.396,0.657,1.095,1.13,2.098l1.192,2.521h-2.37l-1.42-2.821c-0.512-0.997-0.86-1.634-1.046-1.894
	c-0.191-0.259-0.388-0.438-0.601-0.532c-0.214-0.096-0.55-0.145-1.001-0.145h-0.405v5.392H196.15z M198.137,104.601h1.466
	c0.954,0,1.545-0.057,1.785-0.162c0.235-0.102,0.421-0.286,0.554-0.547c0.133-0.252,0.198-0.58,0.198-0.974
	c0-0.434-0.09-0.781-0.262-1.053c-0.178-0.27-0.422-0.434-0.745-0.505c-0.164-0.031-0.646-0.045-1.447-0.045h-1.549V104.601z
	 M214.9,112.049h-2.141l-0.846-2.94h-3.944l-0.818,2.94h-2.098l3.811-12.917h2.099L214.9,112.049z M211.267,106.925l-1.363-4.779
	l-1.329,4.779H211.267z M215.96,112.049V99.132h1.926l4.039,8.659v-8.659h1.835v12.917h-1.986l-3.979-8.491v8.491H215.96z
	 M225.862,112.049V99.132h7.271v2.184h-5.281v2.866h4.91v2.185h-4.91v3.503h5.476v2.18H225.862z"/>
<path fill-rule="evenodd" clip-rule="evenodd" fill="#00534D" d="M128.87,28.481h6.368h1.817h9.122v7.487h-9.122v7.841h4.57
	l4.495,5.164v2.324h-9.065v10.221h9.122v7.497h-9.122h-1.817h-6.368V28.481z M148.586,28.481h8.186v17.192l6.559-17.192h8.187
	l-7.383,19.315l8.1,21.218h-8.176l-7.076-18.531h-0.21v18.531h-8.186V28.481z M174.223,38.474h8.184v30.541h-8.184V38.474z
	 M174.223,36.236h8.184v-7.497h-8.184V36.236z M227.491,38.474h8.176v30.541h-8.176V38.474z M227.491,36.236h8.176v-7.497h-8.176
	V36.236z M208.329,28.481h8.186v33.036h4.484l4.484,5.173v2.323h-8.969h-2.229h-5.957V28.481z M194.264,61.346h11.293v7.668h-20.558
	v-7.668l12.927-25.109h-13.014v-7.497h16.169l6.053,6.646L194.264,61.346z M104.754,63.277v-9.485l3.576,0.028l4.858,4.37
	l-0.01,3.337l5.02-0.01l-0.01-8.682l-0.01-1.549l-7.419,0.011l-6.006-5.384V33.76l5.986-5.278h9.457l6.397,5.794v0.114v6.684h-8.386
	V35.71l-5.096-0.009l0.038,7.755l7.391-0.01l6.168,5.556l-0.086,14.591l-5.9,5.421h-9.647L104.754,63.277z"/>
<path fill-rule="evenodd" clip-rule="evenodd" fill="#00524D" d="M88.906,78.564v27.249c0,3.039-1.176,5.655-3.449,7.673
	l-14.986,13.3c-1.953,1.732-4.198,2.586-6.809,2.586H40.014c-2.66,0-4.948-0.888-6.914-2.681l-16.011-14.608
	c-2.208-2.015-3.343-4.589-3.343-7.579c0-9.273,0-16.682,0-25.955c0.005-3.41,5.975-6.541,6.173-10.354
	c0.242-4.649-6.504-5.444-6.456-11.61l0.206-25.989c0.017-2.946,1.132-5.476,3.295-7.476L31.729,9.473
	c1.971-1.821,4.279-2.725,6.962-2.725h24.137c2.661,0,4.95,0.888,6.915,2.681l15.822,14.441c2.208,2.015,3.342,4.588,3.342,7.577
	v25.456c0,2.841-1.915,4.473-3.346,5.73C76.248,70.821,88.906,71.75,88.906,78.564"/>
<polygon fill-rule="evenodd" clip-rule="evenodd" fill="#FFEF00" points="23.719,104.673 23.719,80.77 32.677,80.847 44.824,91.854 
	44.81,100.251 57.354,100.229 57.331,78.358 57.327,74.461 38.754,74.482 23.719,60.923 23.719,30.306 38.706,17.006 62.355,17.006 
	78.366,31.615 78.366,31.895 78.366,48.744 57.376,48.748 57.388,35.215 44.627,35.207 44.737,54.728 63.213,54.704 78.648,68.705 
	78.443,105.467 63.678,119.114 39.542,119.114 "/>
</svg>
